<mxfile host="app.diagrams.net" modified="2023-11-02T13:45:45.369Z" agent="Mozilla/5.0 (Macintosh; Intel Mac OS X 10_15_7) AppleWebKit/605.1.15 (KHTML, like Gecko) Version/17.1 Safari/605.1.15" etag="1q-u0h9ba8BeB5HZs2wl" version="22.0.8" type="github">
  <diagram name="Page-1" id="2YBvvXClWsGukQMizWep">
    <mxGraphModel dx="1157" dy="700" grid="1" gridSize="10" guides="1" tooltips="1" connect="1" arrows="1" fold="1" page="1" pageScale="1" pageWidth="850" pageHeight="1100" math="0" shadow="0">
      <root>
        <mxCell id="0" />
        <mxCell id="1" parent="0" />
        <mxCell id="F-EdYQ6J0E4HEBq6YIsB-1" value="Internet&#xa;                    |&#xa;                 Firewall&#xa;                    |&#xa;                 Router&#xa;            /     |      \&#xa;   DMZ - Webserver - Databaseserver&#xa;            |&#xa;   Intern Netwerk&#xa;   /     |     |       |       \&#xa;Werkstation  Werkstation  Werkstation  Printer&#xa;                  |&#xa;               AD-server&#xa;                  |&#xa;           Bestandsserver" style="text;whiteSpace=wrap;" vertex="1" parent="1">
          <mxGeometry x="690" y="50" width="280" height="230" as="geometry" />
        </mxCell>
      </root>
    </mxGraphModel>
  </diagram>
</mxfile>
